<?xml version="1.0" encoding="UTF-8" standalone="no"?>
<!-- Uploaded to: SVG Repo, www.svgrepo.com, Generator: SVG Repo Mixer Tools -->

<svg
   fill="#000000"
   version="1.1"
   id="Capa_1"
   width="799.99902"
   height="752.92218"
   viewBox="0 0 446.85245 420.55692"
   xml:space="preserve"
   sodipodi:docname="shopping-cart-empty-side-view-svgrepo-com.svg"
   inkscape:version="1.3.2 (091e20ef0f, 2023-11-25, custom)"
   xmlns:inkscape="http://www.inkscape.org/namespaces/inkscape"
   xmlns:sodipodi="http://sodipodi.sourceforge.net/DTD/sodipodi-0.dtd"
   xmlns="http://www.w3.org/2000/svg"
   xmlns:svg="http://www.w3.org/2000/svg"><defs
   id="defs1" /><sodipodi:namedview
   id="namedview1"
   pagecolor="#ffffff"
   bordercolor="#000000"
   borderopacity="0.25"
   inkscape:showpageshadow="2"
   inkscape:pageopacity="0.0"
   inkscape:pagecheckerboard="0"
   inkscape:deskcolor="#d1d1d1"
   showguides="false"
   inkscape:lockguides="false"
   inkscape:zoom="0.834386"
   inkscape:cx="374.5269"
   inkscape:cy="430.2565"
   inkscape:window-width="1920"
   inkscape:window-height="1080"
   inkscape:window-x="0"
   inkscape:window-y="0"
   inkscape:window-maximized="1"
   inkscape:current-layer="g1" />
<g
   id="g1"
   transform="translate(1.7446348e-4,-13.148098)">
	<path
   d="M 444.274,93.36 C 441.716,89.694 437.6,87.428 433.129,87.237 L 155.942,75.289 c -7.953,-0.348 -14.599,5.792 -14.939,13.708 -0.338,7.913 5.792,14.599 13.707,14.939 L 413.131,115.076 362.32,273.61 H 136.205 L 95.354,51.179 C 94.456,46.304 91.109,42.237 86.493,40.426 L 19.586,14.141 c -7.374,-2.887 -15.695,0.735 -18.591,8.1 -2.891,7.369 0.73,15.695 8.1,18.591 l 59.491,23.371 41.572,226.335 c 1.253,6.804 7.183,11.746 14.104,11.746 h 6.896 l -15.747,43.74 c -1.318,3.664 -0.775,7.733 1.468,10.916 2.24,3.184 5.883,5.078 9.772,5.078 h 11.045 c -6.844,7.617 -11.045,17.646 -11.045,28.675 0,23.718 19.299,43.012 43.012,43.012 23.713,0 43.012,-19.294 43.012,-43.012 0,-11.028 -4.201,-21.058 -11.044,-28.675 h 93.777 c -6.847,7.617 -11.047,17.646 -11.047,28.675 0,23.718 19.294,43.012 43.012,43.012 23.719,0 43.012,-19.294 43.012,-43.012 0,-11.028 -4.2,-21.058 -11.042,-28.675 h 13.432 c 6.6,0 11.948,-5.349 11.948,-11.947 0,-6.6 -5.349,-11.948 -11.948,-11.948 H 143.651 l 12.902,-35.843 h 216.221 c 6.235,0 11.752,-4.028 13.651,-9.96 l 59.739,-186.387 c 1.372,-4.254 0.668,-8.905 -1.89,-12.573 z m -274.61,316.454 c -10.543,0 -19.117,-8.573 -19.117,-19.116 0,-10.543 8.574,-19.117 19.117,-19.117 10.543,0 19.116,8.574 19.116,19.117 0,10.543 -8.573,19.116 -19.116,19.116 z m 157.709,0 c -10.543,0 -19.116,-8.573 -19.116,-19.116 0,-10.543 8.573,-19.117 19.116,-19.117 10.543,0 19.116,8.574 19.116,19.117 0,10.543 -8.573,19.116 -19.116,19.116 z"
   id="path1" />
</g>
</svg>
